
<svg width="93" height="93" viewBox="0 0 93 93" fill="none" xmlns="http://www.w3.org/2000/svg">
<g id="Group 1903">
<g id="Group 1898">
<ellipse id="Ellipse 20" cx="30" cy="30" rx="30" ry="30" transform="matrix(0.530941 0.847409 0.847409 -0.530941 5.37141 37.2279)" fill="black" fill-opacity="0.2"/>
<path id="Ellipse 21" d="M32.121 23.4182C44.9913 15.3544 61.9618 19.2508 70.0256 32.1211C78.0895 44.9914 74.1931 61.9619 61.3228 70.0257C48.4525 78.0895 31.482 74.1931 23.4182 61.3228C15.3543 48.4525 19.2507 31.4821 32.121 23.4182Z" stroke="#263F64" stroke-width="5"/>
</g>
<g id="Group 1897">
<circle id="Ellipse 13" cx="46.7219" cy="46.7219" r="7.5" transform="rotate(-90 46.7219 46.7219)" fill="#415674" stroke="#415674" stroke-width="5"/>
<path id="Vector 1" d="M47.7219 3.72192H45.7219L43.7219 37.7219H49.7219L47.7219 3.72192Z" fill="#415674"/>
<path id="Vector 3" d="M3.72186 45.7219L3.72186 47.7219L37.7219 49.7219L37.7219 43.7219L3.72186 45.7219Z" fill="#415674"/>
<path id="Vector 2" d="M47.7219 89.7219H45.7219L43.7219 55.7219H49.7219L47.7219 89.7219Z" fill="#415674"/>
<path id="Vector 4" d="M89.7219 45.7219L89.7219 47.7219L55.7219 49.7219L55.7219 43.7219L89.7219 45.7219Z" fill="#415674"/>
<ellipse id="Ellipse 14" cx="46.7219" cy="3.72192" rx="3" ry="3" transform="rotate(-90 46.7219 3.72192)" fill="#7B93B6"/>
<ellipse id="Ellipse 16" cx="3.72186" cy="46.7219" rx="3" ry="3" transform="rotate(180 3.72186 46.7219)" fill="#7B93B6"/>
<ellipse id="Ellipse 15" cx="46.7219" cy="89.7219" rx="3" ry="3" transform="rotate(-90 46.7219 89.7219)" fill="#7B93B6"/>
<ellipse id="Ellipse 17" cx="89.7219" cy="46.7219" rx="3" ry="3" transform="rotate(180 89.7219 46.7219)" fill="#7B93B6"/>
</g>
<g id="Group 1808">
<g id="Rectangle 17936">
<rect x="35.7219" y="35" width="22" height="22" rx="11" fill="#0E1F37"/>
<rect x="35.7219" y="35" width="22" height="22" rx="11" fill="white" fill-opacity="0.12"/>
</g>
<g id="Rectangle 17937">
<rect x="35.7219" y="33" width="22" height="22" rx="11" fill="#273F61"/>
<rect x="35.7219" y="33" width="22" height="22" rx="11" fill="white" fill-opacity="0.12"/>
<rect x="36.7219" y="34" width="20" height="20" rx="10" stroke="#7B93B6" stroke-opacity="0.24" stroke-width="2"/>
</g>
<g id="Vector" filter="url(#filter0_d_143_10657)">
<path d="M53.5382 42.5683C53.546 42.5842 53.5527 42.6007 53.5582 42.6176L53.5605 42.6248L53.5624 42.6325C53.5763 42.6921 53.5771 42.754 53.5649 42.8139C53.5527 42.8738 53.5278 42.9303 53.4918 42.9794C53.5293 43.0113 53.5574 43.0531 53.5729 43.1001L53.5743 43.1044C53.6074 43.2157 53.6164 43.4321 53.3068 43.6297L53.291 43.6397C53.3209 43.6909 53.3336 43.7506 53.3274 43.8097C53.3181 43.9149 53.2475 44.0104 53.1121 44.1025C53.1298 44.1355 53.1419 44.1714 53.1477 44.2085C53.1712 44.3519 53.0788 44.4864 52.8734 44.6114C52.8638 44.6174 52.8539 44.6231 52.8452 44.6286C52.8607 44.6656 52.8686 44.7055 52.8684 44.7458C52.8684 44.9135 52.7466 45.0469 52.5062 45.142C52.5349 45.1683 52.5581 45.2002 52.5744 45.2357C52.5906 45.2713 52.5996 45.3098 52.6008 45.349L52.6008 45.3571C52.5969 45.4299 52.5613 45.5624 52.3644 45.6266C52.2552 45.6577 52.1421 45.6716 52.0288 45.6679C51.9468 45.6679 51.8635 45.6633 51.7875 45.6564C51.8236 45.7694 51.817 45.892 51.7691 46.0004C51.7211 46.1042 51.6225 46.1639 51.4985 46.1639C51.4439 46.1628 51.3897 46.154 51.3375 46.1378C51.3394 46.1885 51.3297 46.2391 51.3092 46.2854L51.3025 46.3003L51.2926 46.3135C51.2654 46.351 51.23 46.3815 51.1892 46.4027C51.1484 46.4234 51.1034 46.4341 51.0578 46.4339C51.0084 46.4329 50.9597 46.4226 50.914 46.4035C50.9055 46.4973 50.8832 46.5916 50.8349 46.6573C50.8148 46.685 50.7884 46.7074 50.758 46.7227C50.7276 46.7379 50.694 46.7456 50.6601 46.745C50.5866 46.745 50.5061 46.7074 50.4341 46.659C50.4125 46.7044 50.3857 46.7471 50.3541 46.786C50.3309 46.8161 50.3013 46.8405 50.2675 46.8574C50.2337 46.8743 50.1966 46.8832 50.1589 46.8835C50.0643 46.8835 49.977 46.8287 49.9047 46.7616C49.8199 46.8583 49.6948 46.9116 49.5374 46.9116C49.492 46.9118 49.4466 46.9072 49.4021 46.8978L49.3532 46.8864C49.3854 46.8433 49.4159 46.7989 49.4453 46.7527L49.4354 46.7507C49.702 46.3276 49.8061 45.8198 49.7281 45.3238C49.7281 45.3238 49.7281 45.3218 49.7281 45.3209C49.6915 45.123 49.6288 44.931 49.5416 44.7501L49.551 44.7458C49.777 44.6372 49.9061 44.4201 49.9417 44.0821C49.9936 43.5924 50.2524 43.5009 50.4609 43.4273L50.5002 43.4132C50.6047 43.3754 50.9112 43.2412 51.7782 42.8166L51.7819 42.8146L51.7858 42.8129C52.1124 42.6758 52.757 42.2954 53.0669 42.1127C53.1619 42.0554 53.2249 42.0195 53.252 42.0046C53.3266 41.9648 53.391 41.9301 53.4664 41.9301C53.5243 41.9301 53.6077 41.9516 53.6749 42.0542L53.6788 42.0605L53.6822 42.0669C53.7033 42.1063 53.7163 42.1497 53.7204 42.1944C53.7246 42.2391 53.7197 42.2841 53.7062 42.3269C53.6724 42.4211 53.6143 42.5044 53.5382 42.5683Z" fill="#7B93B6"/>
<path d="M53.2692 42.5743C53.2788 42.5705 53.3749 42.5361 53.4173 42.6652C53.4738 42.9306 53.163 43.0519 53.1503 43.0571C53.1616 43.0551 53.3887 43.0152 53.4328 43.1477C53.5221 43.4493 52.9573 43.6302 52.9573 43.6302C52.9573 43.6302 53.1952 43.6302 53.1802 43.7959C53.1658 43.9562 52.7915 44.1021 52.7658 44.1113C52.7847 44.1064 52.9737 44.0605 53.002 44.2323C53.0316 44.4132 52.5712 44.5941 52.5712 44.5941C52.5712 44.5941 52.7198 44.6093 52.7198 44.7449C52.7198 45.0012 52.1107 45.0918 52.1107 45.0918C52.1107 45.0918 52.4522 45.1973 52.4522 45.3481C52.4375 45.6348 51.5163 45.4688 51.5163 45.4688C51.5163 45.4688 51.7392 45.71 51.6352 45.9362C51.5313 46.1624 51.042 45.8269 51.0265 45.816C51.0378 45.8284 51.2471 46.0612 51.1745 46.2226C51.0409 46.4035 50.7587 46.1171 50.7587 46.1171C50.7587 46.1171 50.8033 46.4488 50.7166 46.5669C50.6298 46.685 50.3358 46.3817 50.3278 46.3737C50.3298 46.3811 50.3691 46.5285 50.2386 46.689C50.1081 46.8496 49.8671 46.4777 49.8671 46.4777C49.8267 46.8054 49.5063 46.7624 49.4462 46.7513L49.4363 46.7493C49.7022 46.3264 49.806 45.8192 49.7281 45.3238C49.7281 45.3238 49.7281 45.3218 49.7281 45.3209C49.7079 45.1707 49.67 45.0233 49.6151 44.8822C49.8677 44.7615 50.0459 44.5204 50.0905 44.0981C50.1352 43.6758 50.3431 43.6308 50.5513 43.5554C50.7595 43.48 51.4129 43.1632 51.8437 42.9533C52.2745 42.7724 53.2105 42.1993 53.3226 42.1391C53.4348 42.0788 53.4921 42.0487 53.5523 42.1391C53.6667 42.3581 53.2879 42.5642 53.2692 42.5743Z" fill="#7B93B6"/>
<path d="M44.084 46.8884L44.0414 46.8985C43.9969 46.9078 43.9515 46.9124 43.9061 46.9122C43.7495 46.9122 43.6236 46.8589 43.5388 46.7623C43.4671 46.8294 43.3798 46.8841 43.2846 46.8841C43.2468 46.8839 43.2097 46.875 43.1758 46.8581C43.142 46.8412 43.1123 46.8168 43.0891 46.7866C43.0574 46.7478 43.0305 46.7051 43.0091 46.6596C42.936 46.7081 42.8554 46.7456 42.7831 46.7456C42.7492 46.7462 42.7157 46.7386 42.6853 46.7233C42.6549 46.7081 42.6286 46.6856 42.6085 46.6579C42.5599 46.5923 42.5379 46.4979 42.5292 46.4042C42.4835 46.4232 42.4347 46.4335 42.3854 46.4346C42.3396 46.4348 42.2945 46.424 42.2537 46.4031C42.2129 46.3822 42.1775 46.3517 42.1506 46.3142L42.1407 46.301L42.1342 46.2861C42.1138 46.2397 42.1041 46.1892 42.106 46.1384C42.0539 46.1547 41.9997 46.1634 41.9452 46.1645C41.8212 46.1645 41.7226 46.1049 41.6749 46.0011C41.6268 45.8927 41.6201 45.7701 41.6559 45.657C41.5802 45.6639 41.4972 45.6685 41.415 45.6685C41.302 45.6721 41.1891 45.658 41.0802 45.6269C40.8825 45.5627 40.8477 45.4302 40.8438 45.3574L40.8438 45.3494C40.845 45.3102 40.854 45.2716 40.8702 45.2361C40.8865 45.2005 40.9097 45.1686 40.9384 45.1424C40.698 45.0472 40.5762 44.913 40.5762 44.7462C40.5759 44.7059 40.5837 44.666 40.5991 44.6289C40.5898 44.6235 40.5799 44.6177 40.5709 44.6117C40.3655 44.4867 40.2731 44.3511 40.2966 44.2089C40.3024 44.1717 40.3145 44.1359 40.3322 44.1028C40.1968 44.0116 40.1262 43.9153 40.1169 43.8101C40.1105 43.7509 40.1233 43.6912 40.1533 43.6401L40.1375 43.63C39.8271 43.4316 39.835 43.2157 39.8691 43.1045L39.8691 43.1002C39.885 43.0532 39.9131 43.0115 39.9505 42.9795C39.9145 42.9304 39.8896 42.8739 39.8774 42.814C39.8653 42.754 39.8662 42.6921 39.8802 42.6326L39.8819 42.6248L39.8841 42.6177C39.8896 42.6007 39.8964 42.5842 39.9045 42.5684C39.8285 42.5042 39.7709 42.4207 39.7375 42.3264C39.724 42.2836 39.7192 42.2386 39.7233 42.1939C39.7274 42.1492 39.7404 42.1058 39.7615 42.0663L39.7649 42.06L39.7689 42.0537C39.8364 41.9511 39.9197 41.9296 39.9762 41.9296C40.0516 41.9296 40.1175 41.9643 40.1903 42.0041C40.2186 42.019 40.2807 42.056 40.3757 42.1122C40.6864 42.2948 41.3302 42.6753 41.6568 42.8123L41.6608 42.8141L41.6647 42.8161C42.5325 43.2407 42.8391 43.3743 42.9425 43.4127L42.9817 43.4268C43.1899 43.5004 43.449 43.5919 43.5007 44.0816C43.5365 44.4196 43.6642 44.6366 43.8919 44.7453L43.895 44.7467C43.8383 44.8647 43.7915 44.9874 43.7552 45.1134C43.6573 45.4494 43.65 45.8058 43.734 46.1456C43.764 46.269 43.805 46.3893 43.8566 46.5051C43.8953 46.5915 43.9401 46.6749 43.9905 46.7548C44.0207 46.801 44.0515 46.8454 44.084 46.8884Z" fill="#7B93B6"/>
<path d="M43.9916 46.7544C43.9176 46.7668 43.6162 46.7969 43.5769 46.4798C43.5769 46.4798 43.3393 46.8568 43.2057 46.6911C43.0721 46.5254 43.1144 46.382 43.1164 46.3757C43.1085 46.3837 42.8133 46.6856 42.7277 46.5689C42.6421 46.4522 42.6856 46.1191 42.6856 46.1191C42.6856 46.1191 42.4031 46.4058 42.2695 46.2246C42.1972 46.0632 42.4065 45.8304 42.4178 45.8181C42.4017 45.8289 41.9113 46.1621 41.809 45.9382C41.7068 45.7143 41.928 45.4709 41.928 45.4709C41.928 45.4709 41.0067 45.6354 40.9932 45.349C40.9932 45.1982 41.3347 45.0927 41.3347 45.0927C41.3347 45.0927 40.7256 45.0021 40.7256 44.7458C40.7256 44.6102 40.8742 44.595 40.8742 44.595C40.8742 44.595 40.4123 44.4141 40.4423 44.2343C40.4705 44.0623 40.6595 44.1084 40.6785 44.1133C40.6525 44.1033 40.2784 43.9573 40.264 43.7979C40.2491 43.6322 40.4866 43.6322 40.4866 43.6322C40.4866 43.6322 39.9216 43.4513 40.0115 43.1497C40.0547 43.0172 40.2818 43.0571 40.294 43.0591C40.2807 43.0539 39.9688 42.9327 40.027 42.6672C40.0694 42.5382 40.1654 42.5726 40.1748 42.5763C40.1564 42.5663 39.7776 42.3601 39.8923 42.1394C39.9516 42.049 40.0095 42.0791 40.1217 42.1394C40.2338 42.1996 41.1703 42.7721 41.6011 42.9516C42.0319 43.1626 42.6856 43.4794 42.8935 43.5537C43.1015 43.6279 43.3097 43.6741 43.3543 44.0964C43.3989 44.5187 43.5769 44.7598 43.8295 44.8805C43.7993 44.9557 43.7748 45.0332 43.7563 45.1122C43.6584 45.4481 43.6511 45.8045 43.7351 46.1443C43.7651 46.2677 43.8061 46.3881 43.8577 46.5039C43.8964 46.5905 43.9411 46.6743 43.9916 46.7544Z" fill="#7B93B6"/>
<path d="M49.0297 41.3825L47.5607 42.591L47.5568 42.5944L47.5421 42.5984L47.3398 42.654C47.1751 42.6844 47.0083 42.7021 46.8409 42.7068L46.5997 42.7068C46.4322 42.7021 46.2653 42.6844 46.1005 42.654L45.8957 42.6001L45.881 42.5961L45.877 42.5927L44.408 41.3842C44.6922 41.3369 45.3191 41.0995 45.3191 41.0995C45.3332 41.1053 45.3488 41.111 45.3649 41.1167C45.7672 41.2541 46.7209 41.3051 46.7209 41.3051C46.7209 41.3051 47.6732 41.2541 48.0769 41.1167C48.0931 41.111 48.1083 41.1053 48.1226 41.0995C48.1226 41.0995 48.7455 41.3352 49.0297 41.3825Z" fill="#7B93B6"/>
<path d="M48.0729 41.1151C47.7028 41.468 46.855 41.5222 46.855 41.5222L46.581 41.5222C46.581 41.5222 45.7335 41.468 45.3632 41.1151C45.7654 41.2524 46.7192 41.3034 46.7192 41.3034C46.7192 41.3034 47.6706 41.2527 48.0729 41.1151Z" fill="#7B93B6"/>
<path d="M49.0289 41.3831L47.5599 42.5916L47.5559 42.595L47.5412 42.599C47.4754 42.623 47.4077 42.6416 47.339 42.6547C47.1742 42.6851 47.0075 42.7027 46.8401 42.7074L46.5988 42.7074C46.4314 42.7027 46.2645 42.6851 46.0997 42.6547C46.0303 42.642 45.9621 42.6237 45.8957 42.6001L45.881 42.5961L45.877 42.5927L44.408 41.3842C44.4453 41.4063 45.651 42.1116 46.4525 42.1116L46.9853 42.1116C47.7867 42.1105 48.9916 41.4052 49.0289 41.3831Z" fill="#7B93B6"/>
<path d="M47.5489 47.1989C46.3799 47.3931 45.1803 47.2034 44.125 46.6573C44.025 46.6049 43.9431 46.5573 43.8809 46.5189L43.858 46.5048C43.8064 46.389 43.7654 46.2687 43.7354 46.1453C43.6514 45.8055 43.6587 45.4491 43.7566 45.1131C43.7929 44.9871 43.8397 44.8644 43.8965 44.7465C44.2818 43.9385 45.0869 43.3316 45.5821 43.0165C45.586 43.0256 45.5903 43.0345 45.5951 43.0431C45.6694 43.1765 46.1711 43.3066 46.4785 43.3066L46.9587 43.3066C47.2661 43.3066 47.7678 43.1765 47.8421 43.0431C47.8469 43.0345 47.8512 43.0256 47.8551 43.0165C48.2308 43.2556 48.7848 43.6627 49.1987 44.198C49.4784 45.3411 49.5182 46.8764 47.5489 47.1989Z" fill="#7B93B6"/>
<path d="M49.7009 46.1452C49.6492 46.3608 49.5628 46.5657 49.4453 46.7527L49.4354 46.7507C49.702 46.3276 49.8061 45.8198 49.7281 45.3238C49.7768 45.5965 49.7675 45.8765 49.7009 46.1452Z" fill="#7B93B6"/>
<path d="M49.4354 46.7514L49.4453 46.7534C49.417 46.7996 49.3854 46.844 49.3532 46.887C48.5178 48 46.718 48 46.718 48C46.718 48 44.9197 48 44.084 46.8884C44.0515 46.8454 44.0207 46.8023 43.9916 46.7544C43.9411 46.6745 43.8967 46.5912 43.858 46.5048L43.8809 46.5189C43.9431 46.5573 44.025 46.6049 44.125 46.6573C45.1803 47.2034 46.3799 47.3931 47.5489 47.1989C49.5182 46.8764 49.4781 45.3411 49.1975 44.1983C49.3313 44.3693 49.4469 44.5541 49.5416 44.7501C49.6288 44.931 49.6915 45.123 49.7281 45.3209C49.7281 45.3209 49.7281 45.323 49.7281 45.3238C49.8063 45.8198 49.7019 46.3281 49.4354 46.7514Z" fill="#7B93B6"/>
<path d="M49.7009 46.1452C49.6492 46.3608 49.5628 46.5663 49.4453 46.7534L49.4354 46.7514C49.7019 46.3281 49.8063 45.8198 49.7281 45.3238C49.7768 45.5965 49.7675 45.8765 49.7009 46.1452Z" fill="#7B93B6"/>
<path fill-rule="evenodd" clip-rule="evenodd" d="M45.0437 40.4986C45.4935 40.5746 46.0714 40.6164 46.6715 40.6164C47.2729 40.6164 47.8509 40.5746 48.2995 40.4986C48.7114 40.4292 48.8956 40.3529 48.9738 40.3082C48.8956 40.2635 48.7114 40.1872 48.2995 40.1178C47.8498 40.0419 47.2704 40 46.6715 40C46.0726 40 45.4946 40.0419 45.0437 40.1178C44.6318 40.1872 44.4476 40.2635 44.3694 40.3082C44.4476 40.3529 44.6318 40.4292 45.0437 40.4986ZM45.0632 40.3796C45.5067 40.4544 46.0782 40.4957 46.6715 40.4957C47.2664 40.4957 47.8376 40.4544 48.2817 40.3796C48.4229 40.3558 48.5359 40.3314 48.6252 40.3082C48.5359 40.285 48.4229 40.2606 48.2817 40.2368C47.8376 40.1631 47.2647 40.1207 46.6715 40.1207C46.0782 40.1207 45.5078 40.1631 45.0632 40.2368C44.9217 40.2606 44.8089 40.285 44.7197 40.3082C44.8089 40.3314 44.9219 40.3558 45.0632 40.3796Z" fill="#7B93B6"/>
<path d="M47.8543 43.0167C47.8504 43.0258 47.846 43.0347 47.8413 43.0434C47.767 43.1767 47.2652 43.3068 46.9579 43.3068L46.4776 43.3068C46.1703 43.3068 45.6686 43.1767 45.5943 43.0434C45.5895 43.0347 45.5851 43.0258 45.5813 43.0167C45.431 42.6847 45.8753 42.5912 45.8753 42.5912L45.8793 42.5947L45.894 42.5987C45.96 42.6226 46.0277 42.6412 46.0965 42.6543C46.2614 42.6847 46.4282 42.7024 46.5957 42.7071L46.837 42.7071C47.0043 42.7024 47.1711 42.6847 47.3359 42.6543C47.4053 42.6418 47.4736 42.6237 47.5401 42.6001L47.5548 42.5961L47.5588 42.5927C47.5588 42.5927 48.0045 42.6861 47.8543 43.0167Z" fill="#7B93B6"/>
<path d="M45.8957 42.6001L45.881 42.5961L45.877 42.5927L45.8957 42.6001Z" fill="#7B93B6"/>
<path d="M47.5588 42.5915L47.5548 42.595L47.5401 42.599C47.5472 42.5967 47.5529 42.5941 47.5588 42.5915Z" fill="#7B93B6"/>
</g>
</g>
</g>
<defs>
<filter id="filter0_d_143_10657" x="39.7219" y="40" width="14" height="9" filterUnits="userSpaceOnUse" color-interpolation-filters="sRGB">
<feFlood flood-opacity="0" result="BackgroundImageFix"/>
<feColorMatrix in="SourceAlpha" type="matrix" values="0 0 0 0 0 0 0 0 0 0 0 0 0 0 0 0 0 0 127 0" result="hardAlpha"/>
<feOffset dy="1"/>
<feComposite in2="hardAlpha" operator="out"/>
<feColorMatrix type="matrix" values="0 0 0 0 0 0 0 0 0 0 0 0 0 0 0 0 0 0 0.25 0"/>
<feBlend mode="normal" in2="BackgroundImageFix" result="effect1_dropShadow_143_10657"/>
<feBlend mode="normal" in="SourceGraphic" in2="effect1_dropShadow_143_10657" result="shape"/>
</filter>
</defs>
</svg>
